<?xml version="1.0" encoding="utf-8"?>
<!-- Generator: Adobe Illustrator 22.0.1, SVG Export Plug-In . SVG Version: 6.00 Build 0)  -->
<svg version="1.0" id="Capa_1" xmlns="http://www.w3.org/2000/svg" xmlns:xlink="http://www.w3.org/1999/xlink" x="0px" y="0px"
	 viewBox="0 0 20 20" style="enable-background:new 0 0 20 20;" xml:space="preserve">
<style type="text/css">
	.st0{fill:#9DAEC1;}
</style>
<g>
	<g>
		<path class="st0" d="M15.2,15c0.3,0,0.5-0.1,0.7-0.3l-3.6-3.6c-0.1,0.1-0.2,0.1-0.2,0.2c-0.3,0.2-0.5,0.4-0.7,0.5
			c-0.2,0.1-0.4,0.2-0.7,0.3c-0.3,0.1-0.5,0.2-0.8,0.2h0h0c-0.2,0-0.5-0.1-0.8-0.2c-0.3-0.1-0.5-0.2-0.7-0.3
			c-0.2-0.1-0.4-0.3-0.7-0.5c-0.1-0.1-0.2-0.1-0.2-0.2L4,14.7C4.2,14.9,4.5,15,4.8,15H15.2z"/>
		<path class="st0" d="M4.4,8.8C4.1,8.7,3.9,8.5,3.6,8.2v5.5l3.2-3.2C6.2,10.1,5.4,9.5,4.4,8.8z"/>
		<path class="st0" d="M15.6,8.8c-1,0.7-1.8,1.2-2.5,1.7l3.2,3.2V8.2C16.1,8.5,15.9,8.7,15.6,8.8z"/>
		<path class="st0" d="M15.2,5H4.8C4.4,5,4.1,5.1,3.9,5.4C3.7,5.6,3.6,5.9,3.6,6.3c0,0.3,0.1,0.6,0.4,1c0.3,0.3,0.5,0.6,0.8,0.8
			c0.2,0.1,0.6,0.5,1.5,1c0.4,0.3,0.8,0.6,1.1,0.8c0.3,0.2,0.5,0.4,0.7,0.5c0,0,0.1,0,0.1,0.1c0.1,0,0.1,0.1,0.2,0.1
			c0.2,0.1,0.3,0.2,0.4,0.3C9,10.9,9.1,11,9.2,11.1c0.1,0.1,0.3,0.1,0.4,0.2c0.1,0,0.2,0.1,0.4,0.1h0h0c0.1,0,0.2,0,0.4-0.1
			c0.1,0,0.3-0.1,0.4-0.2c0.1-0.1,0.3-0.2,0.4-0.2c0.1-0.1,0.2-0.2,0.4-0.3c0.1-0.1,0.1-0.1,0.2-0.1c0,0,0.1-0.1,0.1-0.1
			c0.2-0.1,0.4-0.3,0.7-0.5c0.6-0.4,1.5-1,2.6-1.8c0.3-0.2,0.6-0.5,0.9-0.9c0.2-0.3,0.3-0.7,0.3-1.1c0-0.3-0.1-0.6-0.3-0.8
			C15.8,5.1,15.5,5,15.2,5z"/>
	</g>
</g>
</svg>
