<?xml version="1.0" encoding="utf-8"?>
<!-- Generator: Adobe Illustrator 22.0.1, SVG Export Plug-In . SVG Version: 6.00 Build 0)  -->
<svg version="1.0" id="Capa_1" xmlns="http://www.w3.org/2000/svg" xmlns:xlink="http://www.w3.org/1999/xlink" x="0px" y="0px"
	 viewBox="0 0 20 20" style="enable-background:new 0 0 20 20;" xml:space="preserve">
<style type="text/css">
	.st0{fill:#9DAEC1;}
</style>
<g>
	<path class="st0" d="M17.5,3h-15v12.5h9.2v-2.1c-0.7-0.5-1.1-1.4-1.1-2.3c0-1.6,1.3-3,2.8-3c1.6,0,2.8,1.3,2.8,3
		c0,1-0.5,1.8-1.2,2.4v2h2.4V3z M9.5,10.7H3.8V8.9h5.8V10.7z M16.3,6.7H3.8V4.9h12.5V6.7z"/>
	<polygon class="st0" points="12.3,17 13.4,16.5 14.4,17 14.4,16.4 12.3,16.4 	"/>
	<rect x="12.3" y="15.5" class="st0" width="2.1" height="0.9"/>
	<path class="st0" d="M12.3,13.8v1.7h2.1v-1.6c-0.3,0.1-0.7,0.2-1,0.2C13,14.1,12.6,14,12.3,13.8z"/>
	<path class="st0" d="M15.5,11.1c0-1.2-1-2.2-2.1-2.2c-1.2,0-2.1,1-2.1,2.2s1,2.2,2.1,2.2C14.6,13.3,15.5,12.3,15.5,11.1z"/>
</g>
</svg>
