<?xml version="1.0" encoding="utf-8"?>
<!-- Generator: Adobe Illustrator 22.0.1, SVG Export Plug-In . SVG Version: 6.00 Build 0)  -->
<svg version="1.1" id="Capa_1" xmlns="http://www.w3.org/2000/svg" xmlns:xlink="http://www.w3.org/1999/xlink" x="0px" y="0px"
	 viewBox="0 0 35 35" style="enable-background:new 0 0 35 35;" xml:space="preserve">
<style type="text/css">
	.st0{fill:#4D4D4D;}
	.st1{fill:#C2D5ED;}
</style>
<rect x="2" y="2" class="st0" width="31" height="31"/>
<g>
	<g>
		<path class="st0" d="M33.7,33.7H1.3V1.4h32.3v32.3H33.7z M2.3,32.7h30.3V2.4H2.3V32.7z"/>
	</g>
</g>
<g>
	<g>
		<path class="st1" d="M20.6,18.4c0-1.3,2.8-1.7,2.8-4.8c0-1.3-0.1-2.3-0.7-3c0,0-0.1-0.1-0.1-0.1c-0.2-0.2-0.5-0.4-0.8-0.5
			c0-0.4,2.5-0.2,2.5-1c-0.4,0-5.5,0-5.5,0s-4,0.1-5.2,3.1c-0.1,0.3-0.2,0.5-0.3,0.8c-0.1,0.3-0.1,0.7-0.1,1c0,4.8,4.9,4.2,4.9,4.2
			s0,0.7,0,1.2c0,0.5,0.6,0.3,0.7,1.3c-0.3,0-6.8-0.2-6.8,4.2c0,4.4,5.7,4.1,5.7,4.1s6.6,0.3,6.6-5.1C24.4,20.7,20.6,19.7,20.6,18.4
			z M15.8,14.2c-0.2-0.9-0.2-1.8,0.1-2.6c0.1-0.3,0.2-0.6,0.4-0.8c0.3-0.4,0.6-0.7,1.1-0.8c0.5-0.1,1,0,1.5,0.2
			c0.3,0.1,0.5,0.3,0.8,0.6c0.5,0.5,0.9,1.2,1.1,2c0.5,1.9-0.2,3.8-1.5,4.2C17.9,17.4,16.4,16.2,15.8,14.2z M18.7,27.7
			c-2.3,0.2-4.2-1.1-4.3-2.8c-0.1-1.7,1.6-3.2,3.9-3.3c2.3-0.2,4.2,1.1,4.3,2.8C22.7,26,21,27.5,18.7,27.7z"/>
	</g>
	<g>
		<path class="st1" d="M28.9,5.9l-6.1,4.6h-3.1c-0.3-0.3-0.5-0.3-0.8-0.2c-0.5-0.3-1-0.4-1.5-0.2c-0.5,0.1-0.8,0.4-1.1,0.8
			c-0.2,0.2-0.3,0.5-0.4,0.8c-0.5,0.2-1.8,1-1.8,1h-8l10.7-6.7H28.9z"/>
	</g>
	<g>
		<path class="st1" d="M26.2,15.3c-0.7,0-1.3-0.6-1.3-1.3v-1.3c0-0.7,0.6-1.3,1.3-1.3c0.7,0,1.3,0.6,1.3,1.3V14
			C27.5,14.7,26.9,15.3,26.2,15.3z"/>
	</g>
	<g>
		<path class="st1" d="M26.2,12c-0.4,0-0.7-0.3-0.7-0.7v-4c0-0.4,0.3-0.7,0.7-0.7s0.7,0.3,0.7,0.7v4C26.9,11.7,26.6,12,26.2,12z"/>
	</g>
</g>
</svg>
