<?xml version="1.0" encoding="utf-8"?>
<!-- Generator: Adobe Illustrator 22.0.1, SVG Export Plug-In . SVG Version: 6.00 Build 0)  -->
<svg version="1.0" id="Capa_1" xmlns="http://www.w3.org/2000/svg" xmlns:xlink="http://www.w3.org/1999/xlink" x="0px" y="0px"
	 viewBox="0 0 35 35" style="enable-background:new 0 0 35 35;" xml:space="preserve">
<style type="text/css">
	.st0{fill:#4D4D4D;}
	.st1{fill:#C2D5ED;}
</style>
<rect x="2" y="2" class="st0" width="31" height="31"/>
<g>
	<g>
		<path class="st0" d="M33.7,33.7H1.3V1.4h32.3V33.7z M2.3,32.7h30.3V2.4H2.3V32.7z"/>
	</g>
</g>
<path class="st1" d="M12.6,27.2H8.8V16h3.7V27.2z M10.7,14.5L10.7,14.5c-1.3,0-2.1-0.9-2.1-1.9c0-1.1,0.8-1.9,2.1-1.9
	s2.1,0.8,2.1,1.9C12.8,13.6,12,14.5,10.7,14.5z M26,27.2h-3.7v-6c0-1.5-0.5-2.5-1.9-2.5c-1,0-1.6,0.7-1.9,1.4
	c-0.1,0.2-0.1,0.6-0.1,0.9v6.3h-3.7c0,0,0-10.2,0-11.2h3.7v1.6c0.5-0.8,1.4-1.9,3.4-1.9c2.5,0,4.3,1.6,4.3,5V27.2z"/>
</svg>
