<?xml version="1.0" encoding="utf-8"?>
<!-- Generator: Adobe Illustrator 22.0.1, SVG Export Plug-In . SVG Version: 6.00 Build 0)  -->
<svg version="1.0" id="Capa_1" xmlns="http://www.w3.org/2000/svg" xmlns:xlink="http://www.w3.org/1999/xlink" x="0px" y="0px"
	 viewBox="0 0 20 20" style="enable-background:new 0 0 20 20;" xml:space="preserve">
<style type="text/css">
	.st0{fill:#9DAEC1;}
</style>
<path class="st0" d="M14.5,12.2c-0.9,0-1.8,0.5-2.3,1.2l-3.9-1.9c0.1-0.3,0.1-0.5,0.1-0.8c0-0.4-0.1-0.8-0.2-1.1l4.2-2.7
	c0.5,0.6,1.3,0.9,2.1,0.9c1.6,0,2.9-1.3,2.9-2.9c0-1.6-1.3-2.9-2.9-2.9c-1.6,0-2.9,1.3-2.9,2.9c0,0.4,0.1,0.8,0.2,1.1L7.6,8.7
	C7.1,8.2,6.4,7.8,5.5,7.8c-1.6,0-2.9,1.3-2.9,2.9s1.3,2.9,2.9,2.9c0.9,0,1.8-0.5,2.3-1.2l3.9,1.9c-0.1,0.3-0.1,0.5-0.1,0.8
	c0,1.6,1.3,2.9,2.9,2.9c1.6,0,2.9-1.3,2.9-2.9C17.3,13.5,16,12.2,14.5,12.2z"/>
</svg>
