<?xml version="1.0" encoding="utf-8"?>
<!-- Generator: Adobe Illustrator 22.0.1, SVG Export Plug-In . SVG Version: 6.00 Build 0)  -->
<svg version="1.0" id="Capa_1" xmlns="http://www.w3.org/2000/svg" xmlns:xlink="http://www.w3.org/1999/xlink" x="0px" y="0px"
	 viewBox="0 0 35 35" style="enable-background:new 0 0 35 35;" xml:space="preserve">
<style type="text/css">
	.st0{fill:#4D4D4D;}
	.st1{fill:#C2D5ED;}
</style>
<rect x="2" y="2" class="st0" width="31" height="31"/>
<g>
	<g>
		<path class="st0" d="M33.7,33.7H1.3V1.4h32.3V33.7z M2.3,32.7h30.3V2.4H2.3V32.7z"/>
	</g>
</g>
<g>
	<g>
		<path class="st1" d="M10.1,9.7C9.8,10,9.5,10.2,9,10.2c-0.4,0-0.8-0.2-1.1-0.5C7.6,9.4,7.4,9,7.4,8.6c0-0.4,0.2-0.8,0.5-1.2
			C8.2,7.1,8.6,7,9,7c0.4,0,0.8,0.2,1.1,0.5c0.3,0.3,0.5,0.7,0.5,1.2S10.5,9.4,10.1,9.7z M7.8,27.8V12.9h2.5v14.9H7.8z"/>
	</g>
	<g>
		<path class="st1" d="M13.2,12.9h5.3c1.6,0,3,0.2,4.2,0.6c1.2,0.4,2.2,1,2.8,1.7c0.7,0.7,1.2,1.5,1.5,2.4c0.3,0.9,0.5,1.8,0.5,2.7
			c0,0.9-0.2,1.8-0.5,2.6c-0.3,0.8-0.8,1.6-1.5,2.4s-1.6,1.3-2.9,1.8c-1.2,0.4-2.7,0.7-4.4,0.7h-5.2V12.9z M18.7,26.1
			c1.2,0,2.2-0.2,3-0.5c0.9-0.3,1.5-0.8,2-1.4c0.5-0.6,0.8-1.2,1-1.8c0.2-0.6,0.3-1.3,0.3-2c0-1-0.2-2-0.6-2.8
			c-0.4-0.8-1.1-1.5-2-2.1c-0.9-0.6-2.1-0.9-3.5-0.9h-3.4v11.5H18.7z"/>
	</g>
</g>
</svg>
