<?xml version="1.0" encoding="utf-8"?>
<!-- Generator: Adobe Illustrator 22.0.1, SVG Export Plug-In . SVG Version: 6.00 Build 0)  -->
<svg version="1.0" id="Capa_1" xmlns="http://www.w3.org/2000/svg" xmlns:xlink="http://www.w3.org/1999/xlink" x="0px" y="0px"
	 viewBox="0 0 35 35" style="enable-background:new 0 0 35 35;" xml:space="preserve">
<style type="text/css">
	.st0{fill:#4D4D4D;}
	.st1{fill:#C2D5ED;}
</style>
<rect x="2" y="2" class="st0" width="31" height="31"/>
<g>
	<g>
		<path class="st0" d="M33.7,33.7H1.3V1.4h32.3V33.7z M2.3,32.7h30.3V2.4H2.3V32.7z"/>
	</g>
</g>
<g>
	<path class="st1" d="M22.6,29.3c-0.8,0-1.8-0.5-2.7-1.4c-1.5-1.6-3.2-3.8-4.4-5.9c2.4-0.8,4.2-3,4.2-5.3c0-3.3-2.4-5.2-6.6-5.2
		c-1,0-1.8,0-2.7,0c-0.7,0-1.3,0-2,0c-1.2,0-2.5,0-3.2,0l-0.4,0v1.5l1.5,0.3c0.5,0.1,1,0.2,1,2v11.7c0,1.9-0.4,1.9-1,2l-1.5,0.3v1.5
		l0.7,0c0.9,0,2.1-0.1,3.4-0.1c1.4,0,3.2,0,4,0.1h0.4v-1.5l-1.9-0.3c-0.5-0.1-1-0.1-1-2v-4.5c0.5,0,1.1,0,1.8,0
		c1.9,3.3,3.7,5.6,4.6,6.7c1.1,1.2,2.6,1.9,4.4,1.9c0.6,0,1.2-0.1,1.6-0.3l0.2-0.1v-1.2H22.6z M12.3,20.4c-0.9,0-1.3,0-1.8,0v-6.8
		c0.6,0,1.4,0,2.2,0c2.4,0,3.7,1.1,3.7,3.3C16.4,19,14.8,20.4,12.3,20.4z"/>
</g>
<g>
	<path class="st1" d="M25.9,15.7c-0.7,0-1.3-0.1-1.8-0.4c-0.5-0.3-0.9-0.7-1.2-1.2c-0.3-0.5-0.5-1.1-0.7-1.7
		c-0.2-0.6-0.2-1.3-0.2-1.9c0-0.7,0.1-1.3,0.2-1.9c0.2-0.6,0.4-1.2,0.7-1.7s0.7-0.9,1.3-1.2c0.5-0.3,1.1-0.4,1.8-0.4
		c0.8,0,1.4,0.2,1.9,0.5s0.8,0.8,1.2,1.3l-1,0.7c-0.3-0.4-0.5-0.7-0.8-0.9c-0.3-0.2-0.7-0.3-1.2-0.3c-0.4,0-0.8,0.1-1.1,0.2
		c-0.3,0.2-0.6,0.4-0.8,0.6c-0.2,0.3-0.4,0.6-0.5,0.9c-0.1,0.4-0.2,0.7-0.3,1.1c-0.1,0.4-0.1,0.7-0.1,1.1c0,1.1,0.2,2.1,0.7,2.9
		c0.5,0.8,1.2,1.2,2.1,1.2c0.6,0,1.1-0.2,1.5-0.6s0.6-1,0.6-1.7v-0.4h-1.7v-1.2h2.9v1.2c0,1.2-0.3,2.2-0.9,2.9
		C27.7,15.4,26.9,15.7,25.9,15.7z"/>
</g>
</svg>
