<?xml version="1.0" encoding="utf-8"?>
<!-- Generator: Adobe Illustrator 22.0.1, SVG Export Plug-In . SVG Version: 6.00 Build 0)  -->
<svg version="1.0" id="Capa_1" xmlns="http://www.w3.org/2000/svg" xmlns:xlink="http://www.w3.org/1999/xlink" x="0px" y="0px"
	 viewBox="0 0 20 20" style="enable-background:new 0 0 20 20;" xml:space="preserve">
<style type="text/css">
	.st0{fill:#9DAEC1;}
</style>
<g>
	<g>
		<g>
			<path class="st0" d="M17.2,14.3L14.8,12c-0.5-0.5-1.2-0.4-1.7,0L12,13.2c-0.1,0-0.1-0.1-0.2-0.1c-0.7-0.4-1.7-1-2.8-2
				C7.9,10,7.3,9,6.9,8.3c0-0.1-0.1-0.2-0.1-0.2l0.8-0.8L8,6.9c0.5-0.5,0.5-1.2,0-1.7L5.7,2.9C5.2,2.4,4.4,2.4,4,2.9L3.3,3.6l0,0
				C3.1,3.8,2.9,4.2,2.8,4.5c-0.1,0.3-0.2,0.6-0.2,1c-0.3,2.5,0.9,4.8,4,8c4.3,4.3,7.8,4,8,4c0.3,0,0.6-0.1,1-0.2
				c0.3-0.1,0.7-0.3,0.9-0.5l0,0l0.7-0.6C17.6,15.6,17.6,14.8,17.2,14.3z"/>
		</g>
	</g>
</g>
</svg>
